# xmcd CD database file
#
# Track frame offsets:
#	150
#	17739
#	34263
#	52001
#	67065
#	87304
#	105925
#	122154
#	135694
#	154017
#	170514
#	185485
#
# Disc length: 2715 seconds
#
# Revision: 1
# Processed by: cddbd v1.5.2PL0 Copyright (c) Steve Scherf et al.
# Submitted via: CDex 1.70beta3
#
DISCID=a20a990c
DTITLE=ナオト・インティライミ - ｢7｣
DYEAR=2018
DGENRE=J-Pop
TTITLE0=Shake! Shake! Shake!
TTITLE1=Start To Rain
TTITLE2=Amor y sol Feat.桜井和寿
TTITLE3=Sunday -Organic Ver.-
TTITLE4=My Great Days
TTITLE5=同窓会
TTITLE6=Eraser
TTITLE7=セーフティーゾーン
TTITLE8=夢のありか
TTITLE9=ハイビスカス
TTITLE10=Sing a song
TTITLE11=しおり
EXTD=YEAR: 2018
EXTT0=
EXTT1=
EXTT2=
EXTT3=
EXTT4=
EXTT5=
EXTT6=
EXTT7=
EXTT8=
EXTT9=
EXTT10=
EXTT11=
PLAYORDER=
